<svg width="122" height="43" viewBox="0 0 122 43" fill="none" xmlns="http://www.w3.org/2000/svg">
    <g clip-path="url(#clip0_1934_145)">
        <g clip-path="url(#clip1_1934_145)">
            <g clip-path="url(#clip2_1934_145)">
                <g clip-path="url(#clip3_1934_145)">
                    <g clip-path="url(#clip4_1934_145)">
                        <path
                            d="M49.7978 24.4856H46.918V7.45899H49.7978V14.6085H58.2611V7.45899H61.1409V24.4856H58.2611V16.6506H49.7978V24.4856ZM75.5495 21.9532V23.3574C75.2099 23.5986 74.8418 23.8049 74.4452 23.9762C74.0517 24.1444 73.6455 24.2856 73.2266 24.3999C72.8077 24.511 72.392 24.5919 71.9795 24.6427C71.5638 24.6934 71.1703 24.7188 70.799 24.7188C69.939 24.7188 69.1393 24.5871 68.3999 24.3237C67.6574 24.0603 67.0132 23.6732 66.4674 23.1623C65.9215 22.6514 65.4947 22.0215 65.1869 21.2726C64.8759 20.5236 64.7204 19.6653 64.7204 18.6974C64.7204 17.6661 64.895 16.7331 65.244 15.8985C65.5931 15.0607 66.0596 14.3499 66.6435 13.766C67.2274 13.1789 67.9049 12.7267 68.676 12.4094C69.4471 12.0921 70.2516 11.9334 71.0893 11.9334C71.7875 11.9334 72.4364 12.0476 73.0362 12.2761C73.636 12.5046 74.1548 12.8442 74.5927 13.2948C75.0306 13.7454 75.3734 14.3071 75.6209 14.9798C75.8684 15.6526 75.9922 16.4348 75.9922 17.3265C75.9922 17.5423 75.9826 17.7724 75.9636 18.0167C75.9446 18.2611 75.9112 18.5006 75.8636 18.7355H67.6383C67.6383 19.3606 67.7478 19.9144 67.9668 20.3967C68.1889 20.8759 68.5015 21.2757 68.9045 21.5962C69.3075 21.9199 69.7914 22.1643 70.3563 22.3293C70.9212 22.4975 71.5447 22.5816 72.227 22.5816C72.4206 22.5816 72.6475 22.5736 72.9077 22.5578C73.1679 22.5419 73.444 22.5102 73.7359 22.4626C74.031 22.4181 74.3341 22.3547 74.6451 22.2722C74.9561 22.1897 75.2575 22.0833 75.5495 21.9532ZM67.6383 17.3598H73.3789C73.3789 16.795 73.3075 16.2999 73.1647 15.8747C73.0187 15.4495 72.822 15.0925 72.5745 14.8037C72.3269 14.5181 72.0382 14.3039 71.7081 14.1611C71.3813 14.0183 71.0275 13.9469 70.6467 13.9469C70.2214 13.9469 69.8263 14.031 69.4614 14.1992C69.0965 14.3705 68.7791 14.6101 68.5094 14.9179C68.2365 15.2226 68.0239 15.5843 67.8716 16.0032C67.7161 16.4221 67.6383 16.8743 67.6383 17.3598ZM85.8597 22.672C85.6566 22.8434 85.4138 23.0465 85.1314 23.2813C84.849 23.5193 84.5348 23.7446 84.1889 23.9572C83.8462 24.1698 83.4701 24.3491 83.0608 24.4951C82.6546 24.6442 82.2278 24.7188 81.7803 24.7188C81.3234 24.7188 80.8981 24.6347 80.5047 24.4665C80.1143 24.3015 79.7732 24.0699 79.4813 23.7716C79.1925 23.4733 78.964 23.1163 78.7958 22.7006C78.6308 22.288 78.5483 21.8295 78.5483 21.3249C78.5483 20.7981 78.6546 20.2825 78.8672 19.7779C79.0798 19.2765 79.4368 18.8275 79.9382 18.4308C80.4364 18.0373 81.0965 17.7184 81.9184 17.4741C82.7403 17.2297 83.7557 17.1075 84.9648 17.1075H85.8121V16.1555C85.8121 15.8128 85.7534 15.5066 85.636 15.2369C85.5217 14.9639 85.3599 14.7307 85.1504 14.5371C84.941 14.3436 84.6903 14.196 84.3983 14.0945C84.1096 13.9961 83.7859 13.9469 83.4273 13.9469C83.1481 13.9469 82.8498 13.9786 82.5324 14.0421C82.2151 14.1087 81.9025 14.2008 81.5947 14.3182C81.2837 14.4324 80.9807 14.5689 80.6855 14.7275C80.3904 14.8862 80.127 15.0591 79.8954 15.2464L79.6859 15.1321L79.1528 13.1805C80.0889 12.6918 80.96 12.3618 81.7661 12.1904C82.5721 12.0191 83.3273 11.9334 84.0318 11.9334C84.7617 11.9334 85.4106 12.008 85.9787 12.1571C86.5499 12.3031 87.0322 12.5284 87.4257 12.833C87.8224 13.1409 88.1223 13.5296 88.3254 13.9993C88.5316 14.4657 88.6348 15.0211 88.6348 15.6653V21.3582C88.6348 21.4757 88.6443 21.6042 88.6633 21.7438C88.6824 21.8834 88.722 22.0151 88.7823 22.1389C88.8394 22.2626 88.9235 22.3674 89.0346 22.453C89.1488 22.5387 89.298 22.5816 89.482 22.5816C89.5899 22.5816 89.7216 22.5657 89.8771 22.534C90.0326 22.5022 90.1881 22.4515 90.3436 22.3816V23.7763C89.9247 24.0619 89.509 24.2904 89.0965 24.4618C88.6808 24.6331 88.2746 24.7188 87.8779 24.7188C87.5701 24.7188 87.3035 24.6601 87.0782 24.5427C86.8529 24.4284 86.6625 24.2761 86.507 24.0857C86.3515 23.8953 86.223 23.678 86.1215 23.4336C86.0168 23.1893 85.9295 22.9354 85.8597 22.672ZM85.8121 21.1726V18.4784H85.079C84.273 18.4784 83.6241 18.534 83.1322 18.645C82.6403 18.7593 82.2595 18.9148 81.9898 19.1115C81.7169 19.3083 81.536 19.5367 81.4471 19.797C81.3583 20.0572 81.3139 20.338 81.3139 20.6395C81.3139 20.9568 81.3599 21.2361 81.4519 21.4772C81.5471 21.7152 81.674 21.9167 81.8327 22.0818C81.9914 22.2436 82.1786 22.3674 82.3944 22.453C82.6102 22.5387 82.8434 22.5816 83.0941 22.5816C83.2782 22.5816 83.4717 22.5593 83.6748 22.5149C83.8747 22.4737 84.0858 22.3991 84.3079 22.2912C84.5269 22.1801 84.7601 22.0357 85.0076 21.858C85.2552 21.6803 85.5233 21.4519 85.8121 21.1726ZM92.8521 24.4856V5.86914H95.6653V24.4856H92.8521ZM100.592 21.0822V14.1754H98.1167L98.3262 12.8521C98.9386 12.6966 99.4289 12.5221 99.797 12.3285C100.165 12.1349 100.47 11.8969 100.711 11.6145C100.955 11.3321 101.169 10.9877 101.354 10.5816C101.534 10.1754 101.745 9.68192 101.987 9.10119H103.334V12.1666H107.761L107.261 14.1754H103.415V20.5205C103.415 20.9013 103.469 21.2218 103.576 21.482C103.684 21.7422 103.84 21.9532 104.043 22.1151C104.243 22.2769 104.484 22.3943 104.766 22.4673C105.052 22.5435 105.373 22.5816 105.728 22.5816C106.068 22.5816 106.407 22.5498 106.747 22.4864C107.083 22.4261 107.402 22.3372 107.703 22.2198V23.6383C107.177 23.9937 106.613 24.2618 106.014 24.4427C105.411 24.6268 104.805 24.7188 104.195 24.7188C103.024 24.7188 102.131 24.4015 101.515 23.7668C100.9 23.129 100.592 22.2341 100.592 21.0822ZM110.888 24.4856V5.86914H113.696V14.1563C113.985 13.8993 114.301 13.6407 114.644 13.3804C114.989 13.1202 115.354 12.8822 115.738 12.6664C116.122 12.4507 116.527 12.2745 116.952 12.1381C117.377 12.0016 117.818 11.9334 118.275 11.9334C118.834 11.9334 119.342 12.0381 119.799 12.2476C120.256 12.457 120.647 12.7521 120.974 13.1329C121.298 13.5106 121.549 13.9675 121.726 14.5038C121.907 15.0369 121.998 15.6288 121.998 16.2793V24.4856H119.17V16.5935C119.17 16.1746 119.113 15.8096 118.999 15.4987C118.882 15.1845 118.723 14.9227 118.523 14.7133C118.32 14.5038 118.077 14.3467 117.795 14.242C117.512 14.1373 117.208 14.0849 116.881 14.0849C116.31 14.0849 115.768 14.2325 115.258 14.5276C114.743 14.8196 114.223 15.2067 113.696 15.6891V24.4856H110.888Z"
                            fill="#C4C4C4" />
                    </g>
                </g>
                <g clip-path="url(#clip5_1934_145)">
                    <g clip-path="url(#clip6_1934_145)">
                        <path
                            d="M80.1123 35.0362C79.4205 35.0362 78.8822 34.8006 78.4973 34.3293C78.1124 33.8591 77.9199 33.1663 77.9199 32.2508C77.9199 31.3354 78.1124 30.6316 78.4973 30.1395C78.8822 29.6485 79.4205 29.403 80.1123 29.403C80.5701 29.403 80.9539 29.507 81.2639 29.7151C81.5729 29.9232 81.8132 30.217 81.9849 30.5967L81.4543 30.9166C81.3451 30.6358 81.1786 30.4105 80.955 30.241C80.7313 30.0724 80.4504 29.9882 80.1123 29.9882C79.8783 29.9882 79.6692 30.0324 79.485 30.1208C79.2999 30.2092 79.1438 30.3351 79.0169 30.4984C78.889 30.6628 78.7912 30.8579 78.7235 31.0836C78.6559 31.3104 78.6221 31.5642 78.6221 31.8451V32.6565C78.6221 33.2183 78.7522 33.6578 79.0122 33.9751C79.2723 34.2924 79.639 34.451 80.1123 34.451C80.4608 34.451 80.7521 34.361 80.9862 34.1811C81.2202 34.0021 81.3919 33.7644 81.5011 33.468L82.0239 33.7956C81.8522 34.1806 81.6052 34.4833 81.2827 34.7038C80.9602 34.9254 80.5701 35.0362 80.1123 35.0362ZM85.4568 34.9426V34.2872H85.4256C85.384 34.3808 85.333 34.4729 85.2727 34.5634C85.2134 34.6549 85.1395 34.7355 85.0511 34.8052C84.9627 34.876 84.8561 34.9322 84.7312 34.9738C84.6064 35.0154 84.4608 35.0362 84.2943 35.0362C83.8782 35.0362 83.5479 34.902 83.3034 34.6336C83.059 34.3662 82.9367 33.9881 82.9367 33.4992V30.9166H83.5609V33.3899C83.5609 34.1129 83.8678 34.4744 84.4816 34.4744C84.6064 34.4744 84.7271 34.4588 84.8436 34.4276C84.9611 34.3964 85.0652 34.3496 85.1557 34.2872C85.2472 34.2248 85.32 34.1452 85.3741 34.0484C85.4293 33.9527 85.4568 33.8373 85.4568 33.702V30.9166H86.081V34.9426H85.4568ZM88.0316 34.9426H87.4074V30.9166H88.0316V31.6578H88.0706C88.1434 31.4654 88.2734 31.2937 88.4607 31.1429C88.6479 30.9921 88.9054 30.9166 89.2331 30.9166H89.475V31.5408H89.1083C88.7702 31.5408 88.5059 31.6043 88.3156 31.7312C88.1262 31.8591 88.0316 32.0193 88.0316 32.2118V34.9426ZM90.5813 29.9726C90.4461 29.9726 90.3488 29.9398 90.2895 29.8743C90.2292 29.8098 90.199 29.7255 90.199 29.6215V29.52C90.199 29.416 90.2292 29.3312 90.2895 29.2657C90.3488 29.2012 90.4461 29.1689 90.5813 29.1689C90.7165 29.1689 90.8143 29.2012 90.8747 29.2657C90.934 29.3312 90.9636 29.416 90.9636 29.52V29.6215C90.9636 29.7255 90.934 29.8098 90.8747 29.8743C90.8143 29.9398 90.7165 29.9726 90.5813 29.9726ZM90.2692 34.9426V30.9166H90.8934V34.9426H90.2692ZM92.8439 34.9426H92.2198V30.9166H92.8439V31.572H92.8752C92.974 31.3432 93.1134 31.1611 93.2933 31.0259C93.4723 30.8906 93.7126 30.823 94.0143 30.823C94.4304 30.823 94.7596 30.9567 95.002 31.224C95.2434 31.4924 95.364 31.8711 95.364 32.36V34.9426H94.7399V32.4693C94.7399 31.7463 94.4356 31.3848 93.827 31.3848C93.7022 31.3848 93.5815 31.4004 93.465 31.4316C93.3474 31.4628 93.2419 31.5096 93.1482 31.572C93.0546 31.6344 92.9807 31.7135 92.9266 31.8092C92.8715 31.906 92.8439 32.0193 92.8439 32.1494V34.9426ZM100.045 35.3873C100.045 35.8034 99.8826 36.1087 99.5569 36.3033C99.2324 36.4988 98.745 36.5966 98.0948 36.5966C97.4654 36.5966 97.0129 36.5108 96.7372 36.3392C96.4616 36.1675 96.3237 35.923 96.3237 35.6057C96.3237 35.3873 96.3809 35.2172 96.4954 35.0955C96.6098 34.9727 96.7658 34.8827 96.9635 34.8255V34.7397C96.7242 34.6253 96.6046 34.438 96.6046 34.1779C96.6046 33.9751 96.6696 33.8201 96.7997 33.7129C96.9297 33.6068 97.0961 33.5278 97.299 33.4758V33.4445C97.0597 33.3301 96.8735 33.1663 96.7404 32.953C96.6082 32.7397 96.5422 32.4927 96.5422 32.2118C96.5422 32.0089 96.5786 31.8217 96.6514 31.65C96.7242 31.4784 96.8267 31.3312 96.9588 31.2084C97.092 31.0867 97.2506 30.9921 97.4347 30.9244C97.6199 30.8568 97.8269 30.823 98.0558 30.823C98.3419 30.823 98.5968 30.875 98.8204 30.9791V30.9088C98.8204 30.7528 98.8568 30.6238 98.9296 30.5218C99.0025 30.4209 99.1221 30.3705 99.2885 30.3705H99.8893V30.9166H99.1247V31.1741C99.2703 31.2989 99.3832 31.4482 99.4633 31.622C99.5445 31.7967 99.585 31.9933 99.585 32.2118C99.585 32.4147 99.5486 32.6019 99.4758 32.7736C99.403 32.9452 99.3 33.0919 99.1668 33.2136C99.0347 33.3364 98.875 33.4315 98.6878 33.4992C98.5005 33.5668 98.2925 33.6006 98.0636 33.6006C97.9336 33.6006 97.8035 33.5876 97.6735 33.5616C97.5383 33.598 97.416 33.651 97.3068 33.7207C97.1976 33.7915 97.1429 33.8893 97.1429 34.0141C97.1429 34.1337 97.2002 34.2144 97.3146 34.256C97.429 34.2976 97.5773 34.3184 97.7593 34.3184H98.6176C99.1169 34.3184 99.4794 34.4131 99.7052 34.6024C99.932 34.7928 100.045 35.0544 100.045 35.3873ZM99.4602 35.4341C99.4602 35.2729 99.3988 35.1444 99.2761 35.0487C99.1544 34.9519 98.9375 34.9036 98.6254 34.9036H97.2834C97.0337 35.018 96.9089 35.2 96.9089 35.4497C96.9089 35.6266 96.9749 35.7774 97.1071 35.9022C97.2402 36.0271 97.4654 36.0895 97.7827 36.0895H98.3601C98.7086 36.0895 98.9791 36.0349 99.1715 35.9256C99.364 35.8164 99.4602 35.6526 99.4602 35.4341ZM98.0636 33.1012C98.3289 33.1012 98.5395 33.0373 98.6956 32.9093C98.8516 32.7824 98.9296 32.5863 98.9296 32.321V32.1026C98.9296 31.8373 98.8516 31.6407 98.6956 31.5127C98.5395 31.3858 98.3289 31.3223 98.0636 31.3223C97.7983 31.3223 97.5877 31.3858 97.4316 31.5127C97.2756 31.6407 97.1976 31.8373 97.1976 32.1026V32.321C97.1976 32.5863 97.2756 32.7824 97.4316 32.9093C97.5877 33.0373 97.7983 33.1012 98.0636 33.1012ZM104.156 34.9426H103.43L102.104 29.4966H102.798L103.383 32.1182L103.836 34.1545H103.851L104.358 32.1182L105.045 29.4966H105.794L106.457 32.1182L106.964 34.1467H106.988L107.456 32.1182L108.072 29.4966H108.743L107.347 34.9426H106.621L105.911 32.2274L105.412 30.23H105.396L104.881 32.2274L104.156 34.9426ZM110.967 35.0362C110.696 35.0362 110.449 34.9868 110.226 34.8879C110.002 34.7891 109.811 34.6471 109.653 34.4619C109.494 34.2778 109.37 34.0568 109.282 33.7988C109.193 33.5418 109.149 33.2521 109.149 32.9296C109.149 32.6123 109.193 32.3236 109.282 32.0636C109.37 31.8035 109.494 31.5809 109.653 31.3957C109.811 31.2116 110.002 31.0701 110.226 30.9713C110.449 30.8724 110.696 30.823 110.967 30.823C111.237 30.823 111.483 30.8724 111.705 30.9713C111.925 31.0701 112.116 31.2116 112.278 31.3957C112.439 31.5809 112.564 31.8035 112.652 32.0636C112.741 32.3236 112.785 32.6123 112.785 32.9296C112.785 33.2521 112.741 33.5418 112.652 33.7988C112.564 34.0568 112.439 34.2778 112.278 34.4619C112.116 34.6471 111.925 34.7891 111.705 34.8879C111.483 34.9868 111.237 35.0362 110.967 35.0362ZM110.967 34.4822C111.305 34.4822 111.581 34.3782 111.794 34.1701C112.007 33.9621 112.114 33.6448 112.114 33.2183V32.6409C112.114 32.2144 112.007 31.8971 111.794 31.6891C111.581 31.481 111.305 31.377 110.967 31.377C110.629 31.377 110.353 31.481 110.14 31.6891C109.927 31.8971 109.82 32.2144 109.82 32.6409V33.2183C109.82 33.6448 109.927 33.9621 110.14 34.1701C110.353 34.3782 110.629 34.4822 110.967 34.4822ZM114.439 34.9426H113.815V30.9166H114.439V31.6578H114.478C114.551 31.4654 114.681 31.2937 114.868 31.1429C115.055 30.9921 115.313 30.9166 115.64 30.9166H115.882V31.5408H115.516C115.177 31.5408 114.913 31.6043 114.723 31.7312C114.534 31.8591 114.439 32.0193 114.439 32.2118V34.9426ZM117.895 34.9426H117.341C117.123 34.9426 116.957 34.8812 116.845 34.7584C116.734 34.6367 116.678 34.4822 116.678 34.295V29.1689H117.302V34.3964H117.895V34.9426ZM121.373 34.9426V34.2872H121.342C121.098 34.7865 120.705 35.0362 120.164 35.0362C119.914 35.0362 119.688 34.9868 119.485 34.8879C119.282 34.7891 119.11 34.6487 118.967 34.4666C118.824 34.2846 118.714 34.0635 118.64 33.8034C118.564 33.5434 118.526 33.2521 118.526 32.9296C118.526 32.6071 118.564 32.3158 118.64 32.0558C118.714 31.7957 118.824 31.5746 118.967 31.3926C119.11 31.2105 119.282 31.0701 119.485 30.9713C119.688 30.8724 119.914 30.823 120.164 30.823C120.445 30.823 120.686 30.8839 120.887 31.0056C121.086 31.1283 121.238 31.3171 121.342 31.572H121.373V29.1689H121.998V34.9426H121.373ZM120.336 34.4744C120.476 34.4744 120.61 34.4562 120.738 34.4198C120.865 34.3834 120.976 34.3298 121.069 34.2591C121.163 34.1894 121.237 34.1036 121.292 34.0016C121.346 33.9007 121.373 33.7852 121.373 33.6552V32.1572C121.373 32.048 121.346 31.945 121.292 31.8482C121.237 31.7525 121.163 31.6708 121.069 31.6032C120.976 31.5356 120.865 31.482 120.738 31.4425C120.61 31.404 120.476 31.3848 120.336 31.3848C119.982 31.3848 119.704 31.495 119.501 31.7156C119.298 31.9372 119.197 32.2274 119.197 32.5863V33.2729C119.197 33.6318 119.298 33.9215 119.501 34.1421C119.704 34.3636 119.982 34.4744 120.336 34.4744Z"
                            fill="#00000080" />
                    </g>
                </g>
            </g>
        </g>
        <g clip-path="url(#clip7_1934_145)">
            <g clip-path="url(#clip8_1934_145)">
                <path
                    d="M25.5174 13.9838C23.9173 13.9838 22.3997 14.5713 21.2308 15.6059C20.0602 14.5713 18.5426 13.9838 16.9434 13.9838C13.3734 13.9838 10.4692 16.8889 10.4692 20.4597C10.4692 28.0176 20.4027 31.3469 20.8242 31.4857C20.9568 31.5296 21.0956 31.5507 21.2334 31.5507C21.3713 31.5507 21.5092 31.5296 21.6427 31.4857C22.0642 31.3478 31.996 28.0185 31.996 20.4597C31.9951 16.8889 29.0882 13.9838 25.5174 13.9838ZM21.2334 28.8317C19.5297 28.1775 13.1038 25.3821 13.1038 20.4597C13.1038 18.3415 14.826 16.6184 16.9434 16.6184C18.2256 16.6184 19.4191 17.2569 20.1374 18.3239C20.3816 18.6884 20.7917 18.9071 21.2308 18.9071C21.6699 18.9071 22.0809 18.6884 22.3251 18.323C23.0399 17.2551 24.2343 16.6184 25.5174 16.6184C27.6365 16.6184 29.3604 18.3415 29.3613 20.4597C29.3613 25.383 22.9372 28.1775 21.2334 28.8317ZM41.1478 10.6413H31.8238V1.31732C31.8238 0.590159 31.2337 0 30.5065 0H11.9586C11.2306 0 10.6413 0.590159 10.6413 1.31732V10.6413H1.31732C0.589281 10.6413 0 11.2315 0 11.9586V30.4977C0 31.2249 0.589281 31.815 1.31732 31.815H10.6413V41.1478C10.6413 41.875 11.2306 42.4651 11.9586 42.4651H30.5065C31.2337 42.4651 31.8238 41.875 31.8238 41.1478V31.815H41.1478C41.875 31.815 42.4651 31.2249 42.4651 30.4977V11.9586C42.4651 11.2315 41.875 10.6413 41.1478 10.6413ZM39.8305 29.1804H30.5065C29.7793 29.1804 29.1892 29.7706 29.1892 30.4977V39.8305H13.276V30.4977C13.276 29.7706 12.6867 29.1804 11.9586 29.1804H2.63464V13.276H11.9586C12.6867 13.276 13.276 12.6858 13.276 11.9586V2.63464H29.1892V11.9586C29.1892 12.6858 29.7793 13.276 30.5065 13.276H39.8305V29.1804Z"
                    fill="#00000080" />
            </g>
        </g>
    </g>
    <defs>
        <clipPath id="clip0_1934_145">
            <rect width="122" height="42.4651" fill="white" />
        </clipPath>
        <clipPath id="clip1_1934_145">
            <rect width="75.0849" height="30.7273" fill="white"
                transform="translate(46.915 5.86914)" />
        </clipPath>
        <clipPath id="clip2_1934_145">
            <rect width="75.0849" height="30.7273" fill="white"
                transform="translate(46.915 5.86914)" />
        </clipPath>
        <clipPath id="clip3_1934_145">
            <rect width="75.0849" height="18.8497" fill="white"
                transform="translate(46.915 5.86914)" />
        </clipPath>
        <clipPath id="clip4_1934_145">
            <rect width="75.0849" height="18.8497" fill="white"
                transform="translate(46.915 5.86914)" />
        </clipPath>
        <clipPath id="clip5_1934_145">
            <rect width="44.0824" height="7.42768" fill="white"
                transform="translate(77.918 29.1689)" />
        </clipPath>
        <clipPath id="clip6_1934_145">
            <rect width="44.0824" height="7.42768" fill="white"
                transform="translate(77.918 29.1689)" />
        </clipPath>
        <clipPath id="clip7_1934_145">
            <rect width="42.4651" height="42.4651" fill="white" />
        </clipPath>
        <clipPath id="clip8_1934_145">
            <rect width="42.4651" height="42.4651" fill="white" />
        </clipPath>
    </defs>
</svg>