<svg width="51" height="54" viewBox="0 0 51 54" fill="none" xmlns="http://www.w3.org/2000/svg">
<path id="Vector" d="M1.13539 53.1237C0.87806 53.1237 0.620686 53.0334 0.413015 52.8664C0.10151 52.609 -0.0519331 52.2027 0.0157855 51.8009L8.48061 1.00294C8.54381 0.601139 8.82365 0.267059 9.20288 0.127108C9.5821 -0.0128442 10.0066 0.0548726 10.3271 0.312203L50.0869 33.0429C50.3984 33.3002 50.5519 33.7065 50.4842 34.1083C50.421 34.5101 50.1411 34.8442 49.7618 34.9841L1.53714 53.0515C1.40622 53.1011 1.27083 53.1237 1.13539 53.1237ZM10.3948 3.31891L2.57551 50.2344L47.1164 33.5485L10.3948 3.31891Z" fill="black"/>
</svg>
